<svg width="39" height="40" viewBox="0 0 39 40" fill="none" xmlns="http://www.w3.org/2000/svg">
<path fill-rule="evenodd" clip-rule="evenodd" d="M6.11731 7.38584C14.836 7.37647 23.5548 7.38584 32.2735 7.41387C32.3028 7.44191 32.3321 7.46994 32.3614 7.49798C32.4005 7.797 32.4005 8.09609 32.3614 8.39511C32.3126 8.44182 32.2637 8.48858 32.2148 8.53529C23.5352 8.57269 14.8556 8.57269 6.17595 8.53529C6.1271 8.48858 6.07819 8.44182 6.02934 8.39511C5.99022 8.09609 5.99022 7.797 6.02934 7.49798C6.07139 7.46748 6.10071 7.43008 6.11731 7.38584Z" fill="#252A32"/>
<path fill-rule="evenodd" clip-rule="evenodd" d="M15.7937 9.12402H22.5967C22.6065 10.0401 22.5967 10.9559 22.5673 11.8715C22.4989 11.9369 22.4305 12.0023 22.3621 12.0677C21.3064 12.0771 20.2508 12.0864 19.1952 12.0958C18.0953 12.1045 17.0006 12.0764 15.911 12.0117C15.8743 11.9696 15.845 11.9229 15.823 11.8715C15.7937 10.9559 15.7839 10.0401 15.7937 9.12402Z" fill="#262B32"/>
<path fill-rule="evenodd" clip-rule="evenodd" d="M20.8375 14.9554C20.7649 15.0515 20.7258 15.1636 20.7202 15.2918C19.6797 15.3097 18.6436 15.291 17.612 15.2357C17.3855 14.3882 17.1313 13.5472 16.8496 12.7126C18.4135 12.6378 19.9774 12.6378 21.5413 12.7126C21.2702 13.4504 21.0356 14.198 20.8375 14.9554Z" fill="#242931"/>
<path fill-rule="evenodd" clip-rule="evenodd" d="M20.8374 14.9553C20.8271 15.0877 20.8076 15.2185 20.7787 15.3478C19.7017 15.3844 18.6461 15.3471 17.6118 15.2357C18.6434 15.291 19.6795 15.3096 20.7201 15.2917C20.7256 15.1636 20.7647 15.0514 20.8374 14.9553Z" fill="#D0D1D3"/>
<path fill-rule="evenodd" clip-rule="evenodd" d="M20.4857 16.0208C20.077 15.9461 19.6469 15.9088 19.1955 15.9086C18.744 15.9088 18.3139 15.9461 17.9053 16.0208C17.8522 15.981 17.8327 15.9249 17.8466 15.8525H20.5443C20.5582 15.9249 20.5387 15.981 20.4857 16.0208Z" fill="#B4B5B8"/>
<path fill-rule="evenodd" clip-rule="evenodd" d="M20.4857 16.0208C20.2806 16.6095 20.0851 17.2076 19.8992 17.8151C19.8685 17.8539 19.8293 17.8819 19.7819 17.8992C19.3714 17.9366 18.9609 17.9366 18.5504 17.8992C18.5211 17.8712 18.4917 17.8431 18.4624 17.8151C18.2434 17.2257 18.0577 16.6277 17.9053 16.0208C18.3139 15.9462 18.744 15.9089 19.1955 15.9087C19.6469 15.9089 20.0771 15.9462 20.4857 16.0208Z" fill="#242931"/>
<path fill-rule="evenodd" clip-rule="evenodd" d="M31.6284 31.216C31.7144 31.1685 31.7633 31.0937 31.775 30.9917C31.8226 30.7568 31.8128 30.5325 31.7457 30.3188C31.5729 29.6398 31.1233 29.238 30.3968 29.1133C22.8315 29.0946 15.2662 29.0759 7.70081 29.0572C6.9865 28.8879 6.47822 28.486 6.17601 27.8517C6.02183 27.3079 6.02183 26.7659 6.17601 26.2257C6.49176 25.5414 7.03911 25.1396 7.8181 25.0201C15.3834 25.0015 22.9488 24.9827 30.5141 24.9641C31.4161 24.7185 31.8364 24.1485 31.775 23.2539C31.6084 22.646 31.2076 22.2628 30.5728 22.1044C26.7413 22.0858 22.9097 22.067 19.0781 22.0484C19.0293 22.0017 18.9804 21.9549 18.9315 21.9082C18.9022 20.787 18.8924 19.6655 18.9022 18.5439H19.4887C19.4789 19.46 19.4887 20.3758 19.518 21.2914C19.5399 21.3428 19.5693 21.3895 19.606 21.4316C23.2225 21.4503 26.839 21.469 30.4555 21.4877C32.0786 21.9094 32.6552 22.8906 32.1855 24.4314C31.8272 25.0723 31.2701 25.4554 30.5141 25.5808C22.9293 25.5995 15.3443 25.6182 7.75946 25.6369C6.62712 26.0918 6.32409 26.8488 6.85044 27.9078C7.07934 28.2088 7.38236 28.405 7.75946 28.4965C15.4047 28.4971 23.0483 28.5345 30.6901 28.6087C31.7368 28.8535 32.3037 29.489 32.3908 30.5151C32.35 31.5811 31.8026 32.2726 30.7487 32.5897C22.5383 32.6271 14.3278 32.6271 6.11737 32.5897C5.96096 32.4215 6.11737 32.0851 6.11737 32.0851C14.2496 32.0664 22.3819 32.0477 30.5141 32.029C31.013 31.9164 31.3844 31.6453 31.6284 31.216Z" fill="#272C34"/>
<path fill-rule="evenodd" clip-rule="evenodd" d="M6.17595 26.2256C6.02177 26.7658 6.02177 27.3078 6.17595 27.8516C6.10012 27.7764 6.05127 27.6829 6.02934 27.5713C5.99022 27.2162 5.99022 26.861 6.02934 26.5059C6.05127 26.3943 6.10012 26.3008 6.17595 26.2256Z" fill="#54575E"/>
<path fill-rule="evenodd" clip-rule="evenodd" d="M31.7457 30.3188C31.8129 30.5325 31.8227 30.7568 31.775 30.9917C31.7633 31.0937 31.7144 31.1685 31.6284 31.216C31.7272 30.9258 31.7662 30.6267 31.7457 30.3188Z" fill="#7B7E83"/>
</svg>
